<?xml version="1.0" standalone="no"?>
<!DOCTYPE svg PUBLIC "-//W3C//DTD SVG 1.1//EN" "http://www.w3.org/Graphics/SVG/1.1/DTD/svg11.dtd" >
<svg>
<metadata>
Created by FontForge 20090914 at Thu Feb 23 17:59:05 2012
 By ffonts
(C)2000 DigitalDreamDesign.All Rights Reserved.
</metadata>
<defs>
<font id="D3LiteBitMapismBold" horiz-adv-x="512" >
  <font-face 
    font-family="D3 LiteBitMapism Bold"
    font-weight="400"
    font-stretch="normal"
    units-per-em="1024"
    panose-1="2 11 6 0 0 0 0 0 0 0"
    ascent="819"
    descent="-205"
    x-height="500"
    cap-height="700"
    bbox="0 -200 800 800"
    underline-thickness="48"
    underline-position="-72"
    unicode-range="U+0020-U+2219"
  />
<missing-glyph 
d="M206 400v100h100v-100h-100z" />
    <glyph glyph-name=".notdef" 
d="M206 400v100h100v-100h-100z" />
    <glyph glyph-name="glyph1" horiz-adv-x="0" 
 />
    <glyph glyph-name="space" unicode=" " horiz-adv-x="400" 
 />
    <glyph glyph-name="exclam" unicode="!" horiz-adv-x="300" 
d="M0 0v100h200v-100h-200zM0 200v500h200v-500h-200z" />
    <glyph glyph-name="quotedbl" unicode="&#x22;" horiz-adv-x="500" 
d="M0 800v-200h200v200h-200zM300 800v-200h100v200h-100z" />
    <glyph glyph-name="numbersign" unicode="#" horiz-adv-x="700" 
d="M100 0v200h-100v100h100v100h-100v100h100v200h200v-200h100v200h100v-200h100v-100h-100v-100h100v-100h-100v-200h-100v200h-100v-200h-200zM300 400v-100h100v100h-100z" />
    <glyph glyph-name="dollar" unicode="$" horiz-adv-x="800" 
d="M300 0v100h-300v100h300v100h-200v100h-100v100h100v100h200v100h100v-100h300v-100h-300v-100h200v-100h100v-100h-100v-100h-200v-100h-100zM200 400h100v100h-100v-100zM400 200h100v100h-100v-100z" />
    <glyph glyph-name="percent" unicode="%" horiz-adv-x="1000" 
d="M400 300h100v100h200v-100h100v-200h-100v-100h-200v100h-100v200zM600 100h100v200h-100v-200zM0 0v100h100v100h100v100h100v100h100v100h100v100h100v100h200v-100h-100v-100h-100v-100h-100v-100h-100v-100h-100v-100h-100v-100h-200zM0 600h100v100h200v-100h100
v-200h-100v-100h-200v100h-100v200zM200 400h100v200h-100v-200z" />
    <glyph glyph-name="ampersand" unicode="&#x26;" horiz-adv-x="700" 
d="M500 700h-400v-100h-100v-200h100v-100h-100v-200h100v-100h400v100h100v200h-100v-200h-300v200h200v100h-200v200h300v100z" />
    <glyph glyph-name="quotesingle" unicode="'" horiz-adv-x="300" 
d="M0 800v-200h200v200h-200z" />
    <glyph glyph-name="parenleft" unicode="(" horiz-adv-x="500" 
d="M200 0v100h-100v100h-100v300h100v100h100v100h200v-100h-100v-100h-100v-300h100v-100h100v-100h-200z" />
    <glyph glyph-name="parenright" unicode=")" horiz-adv-x="500" 
d="M0 700h200v-100h100v-100h100v-300h-100v-100h-100v-100h-200v100h100v100h100v300h-100v100h-100v100z" />
    <glyph glyph-name="asterisk" unicode="*" horiz-adv-x="700" 
d="M0 600h100v-100h100v200h200v-200h100v100h100v-100h-100v-100h-100v-100h100v-100h100v-100h-100v100h-100v-200h-200v200h-100v-100h-100v100h100v100h100v100h-100v100h-100v100z" />
    <glyph glyph-name="plus" unicode="+" horiz-adv-x="700" 
d="M0 400v-100h200v-200h200v200h200v100h-200v200h-200v-200h-200z" />
    <glyph glyph-name="comma" unicode="," horiz-adv-x="400" 
d="M100 100h200v-200h-300v100h100v100z" />
    <glyph glyph-name="hyphen" unicode="-" horiz-adv-x="700" 
d="M0 400v-100h600v100h-600z" />
    <glyph glyph-name="period" unicode="." horiz-adv-x="300" 
d="M0 100v-100h200v100h-200z" />
    <glyph glyph-name="slash" unicode="/" horiz-adv-x="700" 
d="M0 0v200h100v100h100v100h100v100h100v200h200v-200h-100v-100h-100v-100h-100v-100h-100v-200h-200z" />
    <glyph glyph-name="zero" unicode="0" horiz-adv-x="700" 
d="M100 0v100h-100v500h100v100h400v-100h100v-500h-100v-100h-400zM100 100h300v300h-100v-100h-100v-100h-100v-100zM400 600h-300v-300h100v100h100v100h100v100z" />
    <glyph glyph-name="one" unicode="1" horiz-adv-x="500" 
d="M100 0v500h-100v100h100v100h200v-700h-200z" />
    <glyph glyph-name="two" unicode="2" horiz-adv-x="700" 
d="M100 700h400v-100h100v-200h-100v-100h-200v-100h-200v-100h500v-100h-600v200h100v100h200v100h100v200h-300v-100h-100v100h100v100z" />
    <glyph glyph-name="three" unicode="3" horiz-adv-x="700" 
d="M0 700h500v-100h100v-200h-100v-100h100v-200h-100v-100h-500v100h400v200h-300v100h300v200h-400v100z" />
    <glyph glyph-name="four" unicode="4" horiz-adv-x="700" 
d="M0 700v-400h100v-100h300v-200h100v200h100v100h-100v400h-100v-400h-200v400h-200z" />
    <glyph glyph-name="five" unicode="5" horiz-adv-x="700" 
d="M0 700v-300h400v-300h-300v100h-100v-100h100v-100h400v100h100v300h-100v100h-300v100h400v100h-600z" />
    <glyph glyph-name="six" unicode="6" horiz-adv-x="700" 
d="M0 100h100v-100h400v100h100v200h-100v100h-300v200h300v100h-400v-100h-100v-500zM200 100v200h300v-200h-300z" />
    <glyph glyph-name="seven" unicode="7" horiz-adv-x="700" 
d="M0 700h600v-300h-100v-100h-100v-300h-200v300h100v100h100v200h-400v100z" />
    <glyph glyph-name="eight" unicode="8" horiz-adv-x="700" 
d="M0 600v-200h100v-100h-100v-200h100v-100h400v100h100v200h-100v100h100v200h-100v100h-400v-100h-100zM200 400v200h300v-200h-300zM100 100v200h300v-200h-300z" />
    <glyph glyph-name="nine" unicode="9" horiz-adv-x="700" 
d="M0 600h100v100h400v-100h100v-500h-100v-100h-400v100h300v100h-300v100h-100v300zM100 300h300v300h-300v-300z" />
    <glyph glyph-name="colon" unicode=":" horiz-adv-x="300" 
d="M0 600v-100h200v100h-200zM0 200v100h200v-100h-200z" />
    <glyph glyph-name="semicolon" unicode=";" horiz-adv-x="400" 
d="M100 500v100h200v-100h-200zM100 300h200v-200h-300v100h100v100z" />
    <glyph glyph-name="less" unicode="&#x3c;" horiz-adv-x="600" 
d="M0 400v-100h100v-100h100v-100h100v-100h200v100h-100v100h-100v100h-100v100h100v100h100v100h100v100h-200v-100h-100v-100h-100v-100h-100z" />
    <glyph glyph-name="equal" unicode="=" horiz-adv-x="700" 
d="M0 400v100h600v-100h-600zM0 200v100h600v-100h-600z" />
    <glyph glyph-name="greater" unicode="&#x3e;" horiz-adv-x="700" 
d="M500 400h-100v100h-100v100h-100v100h-200v-100h100v-100h100v-100h100v-100h-100v-100h-100v-100h-100v-100h200v100h100v100h100v100h100v100z" />
    <glyph glyph-name="question" unicode="?" horiz-adv-x="700" 
d="M0 500v100h100v100h400v-100h100v-200h-100v-100h-100v-100h-200v200h200v200h-300v-100h-100zM200 0v100h200v-100h-200z" />
    <glyph glyph-name="at" unicode="@" horiz-adv-x="800" 
d="M100 0v100h-100v500h100v100h500v-100h100v-400h-400v200h100v100h200v100h-400v-500h400v-100h-500zM500 300h100v100h-100v-100z" />
    <glyph glyph-name="A" unicode="A" horiz-adv-x="700" 
d="M0 0v600h100v100h400v-100h100v-600h-200v200h-300v-200h-100zM100 300h300v300h-300v-300z" />
    <glyph glyph-name="B" unicode="B" horiz-adv-x="700" 
d="M0 0v700h500v-100h100v-200h-100v-100h100v-200h-100v-100h-500zM200 400h300v200h-300v-200zM200 100h300v200h-300v-200z" />
    <glyph glyph-name="C" unicode="C" horiz-adv-x="700" 
d="M100 0v100h-100v500h100v100h500v-100h-400v-500h400v-100h-500z" />
    <glyph glyph-name="D" unicode="D" horiz-adv-x="700" 
d="M0 0v700h500v-100h100v-500h-100v-100h-500zM500 100v500h-300v-500h300z" />
    <glyph glyph-name="E" unicode="E" horiz-adv-x="700" 
d="M200 0h-100v100h-100v500h100v100h100h400v-100h-400v-200h400v-100h-400v-200h400v-100h-400z" />
    <glyph glyph-name="F" unicode="F" horiz-adv-x="700" 
d="M0 0v600h100v100h500v-100h-400v-200h400v-100h-400v-300h-200z" />
    <glyph glyph-name="G" unicode="G" horiz-adv-x="700" 
d="M100 0v100h-100v500h100v100h500v-100h-400v-500h300v200h-200v100h300v-400h-500z" />
    <glyph glyph-name="H" unicode="H" horiz-adv-x="700" 
d="M0 0v700h200v-300h300v300h100v-700h-100v300h-300v-300h-200z" />
    <glyph glyph-name="I" unicode="I" horiz-adv-x="500" 
d="M0 700v-100h100v-500h-100v-100h400v100h-100v500h100v100h-400z" />
    <glyph glyph-name="J" unicode="J" horiz-adv-x="700" 
d="M600 700v-600h-100v-100h-400v100h-100v200h100v-200h300v600h200z" />
    <glyph glyph-name="K" unicode="K" horiz-adv-x="700" 
d="M0 700h200v-300h100v100h100v100h100v100h100v-100h-100v-100h-100v-100h-100v-100h100v-100h100v-100h100v-100h-100v100h-100v100h-100v100h-100v-300h-200v700z" />
    <glyph glyph-name="L" unicode="L" horiz-adv-x="700" 
d="M0 700h200v-600h400v-100h-500v100h-100v600z" />
    <glyph glyph-name="M" unicode="M" horiz-adv-x="900" 
d="M0 0v600v100h200h500v-100h100v-600h-100v600h-200v-600h-100v600h-200v-600h-200z" />
    <glyph glyph-name="N" unicode="N" horiz-adv-x="700" 
d="M0 0v700h200v-100h100v-100h100v-100h100v300h100v-700h-100v300h-100v100h-100v100h-100v-500h-200z" />
    <glyph glyph-name="O" unicode="O" horiz-adv-x="700" 
d="M100 0v100h-100v500h100v100h400v-100h100v-500h-100v-100h-400zM200 600v-500h300v500h-300z" />
    <glyph glyph-name="P" unicode="P" horiz-adv-x="700" 
d="M0 0v700h500v-100h100v-200h-100v-100h-300v-300h-200zM200 400h300v200h-300v-200z" />
    <glyph glyph-name="Q" unicode="Q" horiz-adv-x="700" 
d="M100 0v100h-100v500h100v100h400v-100h100v-400h-100v-100h100v-100h-100v100h-100v-100h-300zM200 600v-500h200v100h-100v100h100v-100h100v400h-300z" />
    <glyph glyph-name="R" unicode="R" horiz-adv-x="700" 
d="M0 0v700h500v-100h100v-200h-100v-100h-100v-100h100v-100h100v-100h-100v100h-100v100h-100v100h-100v-300h-200zM200 400h300v200h-300v-200z" />
    <glyph glyph-name="S" unicode="S" horiz-adv-x="700" 
d="M600 700h-500v-100h-100v-200h100v-100h300v-200h-400v-100h500v100h100v200h-100v100h-300v200h400v100z" />
    <glyph glyph-name="T" unicode="T" horiz-adv-x="700" 
d="M0 700v-100h200v-600h200v600h200v100h-600z" />
    <glyph glyph-name="U" unicode="U" horiz-adv-x="700" 
d="M0 700v-600h100v-100h400v100h100v600h-100v-600h-300v600h-200z" />
    <glyph glyph-name="V" unicode="V" horiz-adv-x="700" 
d="M0 700v-500h100v-100h100v-100h200v100h100v100h100v500h-100v-500h-100v-100h-100v100h-100v500h-200z" />
    <glyph glyph-name="W" unicode="W" horiz-adv-x="900" 
d="M0 700v-600h100v-100h300v100h100v-100h200v100h100v600h-100v-600h-200v600h-100v-600h-200v600h-200z" />
    <glyph glyph-name="X" unicode="X" horiz-adv-x="700" 
d="M0 700v-200h100v-100h100v-100h-100v-100h-100v-200h100v200h100v100h100v-100h100v-200h200v200h-100v100h-100v100h100v100h100v200h-100v-200h-100v-100h-100v100h-100v200h-100h-100z" />
    <glyph glyph-name="Y" unicode="Y" horiz-adv-x="700" 
d="M0 700v-400h100v-100h100v-200h200v200h100v100h100v400h-100v-400h-100v0h-100v0h-100v400h-200z" />
    <glyph glyph-name="Z" unicode="Z" horiz-adv-x="700" 
d="M0 700h600v-200h-100v-100h-100v-100h-100v-100h-100v-100h400v-100h-600v200h100v100h100v100h100v100h100v100h-400v100z" />
    <glyph glyph-name="bracketleft" unicode="[" horiz-adv-x="400" 
d="M300 -100h-300v900h300v-100h-100v-700h100v-100z" />
    <glyph glyph-name="backslash" unicode="\" horiz-adv-x="700" 
d="M200 0v100h-100v100h100v100h-100v100h-100v300h200v-300h300v300h100v-300h-100v-100h-100v-100h100v-100h-100v-100h-200z" />
    <glyph glyph-name="bracketright" unicode="]" horiz-adv-x="400" 
d="M0 800h300v-900h-300v100h100v700h-100v100z" />
    <glyph glyph-name="asciicircum" unicode="^" horiz-adv-x="500" 
d="M0 600v100h100v100h200v-100h100v-100h-200v100h-100v-100h-100z" />
    <glyph glyph-name="underscore" unicode="_" horiz-adv-x="600" 
d="M0 0v100h500v-100h-500z" />
    <glyph glyph-name="grave" unicode="`" horiz-adv-x="400" 
d="M0 800v-100h100v-100h200v100h-100v100h-200z" />
    <glyph glyph-name="a" unicode="a" horiz-adv-x="700" 
d="M600 0h-600v200h100v100h300v100h-300v100h400v-100h100v-400zM400 100v100h-300v-100h300z" />
    <glyph glyph-name="b" unicode="b" horiz-adv-x="700" 
d="M0 700v-700h500v100h100v300h-100v100h-300v200h-200zM200 100v300h300v-300h-300z" />
    <glyph glyph-name="c" unicode="c" horiz-adv-x="700" 
d="M600 0h-500v100h-100v300h100v100h500v-100h-400v-300h400v-100z" />
    <glyph glyph-name="d" unicode="d" horiz-adv-x="700" 
d="M600 0h-500v100h-100v300h100v100h300v200h200v-700zM400 100v300h-300v-300h300z" />
    <glyph glyph-name="e" unicode="e" horiz-adv-x="700" 
d="M600 0h-500v100h-100v300h100v100h400v-100h100v-200h-400v-100h400v-100zM500 400h-300v-100h300v100z" />
    <glyph glyph-name="f" unicode="f" horiz-adv-x="700" 
d="M100 0v300h-100v100h100v200h100v100h400v-100h-300v-200h300v-100h-300v-300h-200z" />
    <glyph glyph-name="g" unicode="g" horiz-adv-x="700" 
d="M600 500h-500v-100h-100v-300h100v-100h300v-100h-300v-100h400v100h100v600zM100 100v300h300v-300h-300z" />
    <glyph glyph-name="h" unicode="h" horiz-adv-x="700" 
d="M0 0v700h200v-200h300v-100h100v-400h-100v400h-300v-400h-200z" />
    <glyph glyph-name="i" unicode="i" horiz-adv-x="300" 
d="M0 500h200v-500h-200v500zM0 600v100h200v-100h-200z" />
    <glyph glyph-name="j" unicode="j" horiz-adv-x="600" 
d="M300 700v-100h200v100h-200zM300 500h200v-600h-100v-100h-400v100h300v600z" />
    <glyph glyph-name="k" unicode="k" horiz-adv-x="700" 
d="M0 0v700h200v-400h200v100h100v100h100v-100h-100v-100h-100v-100h100v-100h100v-100h-100v100h-100v100h-200v-200h-200z" />
    <glyph glyph-name="l" unicode="l" horiz-adv-x="400" 
d="M0 700v-600h100v-100h200v100h-100v600h-200z" />
    <glyph glyph-name="m" unicode="m" horiz-adv-x="900" 
d="M0 500v-500h200v400h200v-400h100v400h200v-400h100v400h-100v100h-700z" />
    <glyph glyph-name="n" unicode="n" horiz-adv-x="700" 
d="M0 0v500h500v-100h100v-400h-100v400h-300v-400h-200z" />
    <glyph glyph-name="o" unicode="o" horiz-adv-x="700" 
d="M100 0v100h-100v300h100v100h400v-100h100v-300h-100v-100h-400zM500 100v300h-300v-300h300z" />
    <glyph glyph-name="p" unicode="p" horiz-adv-x="700" 
d="M0 -200v700h500v-100h100v-300h-100v-100h-300v-200h-200zM200 100h300v300h-300v-300z" />
    <glyph glyph-name="q" unicode="q" horiz-adv-x="700" 
d="M600 -200h-200v200h-300v100h-100v300h100v100h400v-100h100v-600zM400 100v300h-300v-300h300z" />
    <glyph glyph-name="r" unicode="r" horiz-adv-x="700" 
d="M0 0v500h200v-100h100v100h300v-100h-300v-100h-100v-300h-200z" />
    <glyph glyph-name="s" unicode="s" horiz-adv-x="700" 
d="M0 0v100h400v100h-300v100h-100v100h100v100h500v-100h-400v-100h300v-100h100v-100h-100v-100h-500z" />
    <glyph glyph-name="t" unicode="t" horiz-adv-x="700" 
d="M200 0v100h-100v300h-100v100h100v100h200v-100h300v-100h-300v-300h300v-100h-400z" />
    <glyph glyph-name="u" unicode="u" horiz-adv-x="700" 
d="M0 500v-400h100v-100h500v500h-200v-400h-300v400h-100z" />
    <glyph glyph-name="v" unicode="v" horiz-adv-x="700" 
d="M0 500v-300h100v-100h100v-100h200v100h100v100h100v300h-100v-300h-100v-100h-100v100h-100v300h-200z" />
    <glyph glyph-name="w" unicode="w" horiz-adv-x="900" 
d="M0 500v-400h100v-100h300v100h100v-100h200v100h100v400h-100v-400h-200v400h-100v-400h-200v400h-200z" />
    <glyph glyph-name="x" unicode="x" horiz-adv-x="700" 
d="M0 500v-100h100v-100h100v-100h-100v-100h-100v-100h100v100h100v100h100v-100h100v-100h200v100h-100v100h-100v100h100v100h100v100h-100v-100h-100v-100h-100v100h-100v100h-200z" />
    <glyph glyph-name="y" unicode="y" horiz-adv-x="700" 
d="M0 500v-400h100v-100h300v-100h-300v-100h400v100h100v600h-200v-400h-300v400h-100z" />
    <glyph glyph-name="z" unicode="z" horiz-adv-x="700" 
d="M0 500h600v-100h-100v-100h-100v-100h-100v-100h300v-100h-600v100h100v100h100v100h100v100h-300v100z" />
    <glyph glyph-name="braceleft" unicode="{" 
 />
    <glyph glyph-name="bar" unicode="|" horiz-adv-x="300" 
d="M0 -100v900h200v-900h-200z" />
    <glyph glyph-name="braceright" unicode="}" 
 />
    <glyph glyph-name="asciitilde" unicode="~" horiz-adv-x="600" 
d="M0 600v100h100v100h100v-100h100v100h200v-100h-100v-100h-200v100h-100v-100h-100z" />
    <glyph glyph-name="uni00A0" unicode="&#xa0;" 
 />
    <glyph glyph-name="exclamdown" unicode="&#xa1;" 
 />
    <glyph glyph-name="cent" unicode="&#xa2;" 
 />
    <glyph glyph-name="sterling" unicode="&#xa3;" 
 />
    <glyph glyph-name="currency" unicode="&#xa4;" 
 />
    <glyph glyph-name="yen" unicode="&#xa5;" 
 />
    <glyph glyph-name="brokenbar" unicode="&#xa6;" 
 />
    <glyph glyph-name="section" unicode="&#xa7;" 
 />
    <glyph glyph-name="dieresis" unicode="&#xa8;" 
 />
    <glyph glyph-name="copyright" unicode="&#xa9;" 
 />
    <glyph glyph-name="ordfeminine" unicode="&#xaa;" 
 />
    <glyph glyph-name="guillemotleft" unicode="&#xab;" 
 />
    <glyph glyph-name="logicalnot" unicode="&#xac;" 
 />
    <glyph glyph-name="uni00AD" unicode="&#xad;" 
 />
    <glyph glyph-name="registered" unicode="&#xae;" 
 />
    <glyph glyph-name="macron" unicode="&#xaf;" 
 />
    <glyph glyph-name="degree" unicode="&#xb0;" 
 />
    <glyph glyph-name="plusminus" unicode="&#xb1;" 
 />
    <glyph glyph-name="uni00B2" unicode="&#xb2;" 
 />
    <glyph glyph-name="uni00B3" unicode="&#xb3;" 
 />
    <glyph glyph-name="acute" unicode="&#xb4;" 
 />
    <glyph glyph-name="uni00B5" unicode="&#xb5;" 
 />
    <glyph glyph-name="paragraph" unicode="&#xb6;" 
 />
    <glyph glyph-name="periodcentered" unicode="&#xb7;" 
 />
    <glyph glyph-name="cedilla" unicode="&#xb8;" 
 />
    <glyph glyph-name="uni00B9" unicode="&#xb9;" 
 />
    <glyph glyph-name="ordmasculine" unicode="&#xba;" 
 />
    <glyph glyph-name="guillemotright" unicode="&#xbb;" 
 />
    <glyph glyph-name="onequarter" unicode="&#xbc;" 
 />
    <glyph glyph-name="onehalf" unicode="&#xbd;" 
 />
    <glyph glyph-name="threequarters" unicode="&#xbe;" 
 />
    <glyph glyph-name="questiondown" unicode="&#xbf;" 
 />
    <glyph glyph-name="Agrave" unicode="&#xc0;" 
 />
    <glyph glyph-name="Aacute" unicode="&#xc1;" 
 />
    <glyph glyph-name="Acircumflex" unicode="&#xc2;" 
 />
    <glyph glyph-name="Atilde" unicode="&#xc3;" 
 />
    <glyph glyph-name="Adieresis" unicode="&#xc4;" 
 />
    <glyph glyph-name="Aring" unicode="&#xc5;" 
 />
    <glyph glyph-name="AE" unicode="&#xc6;" 
 />
    <glyph glyph-name="Ccedilla" unicode="&#xc7;" 
 />
    <glyph glyph-name="Egrave" unicode="&#xc8;" 
 />
    <glyph glyph-name="Eacute" unicode="&#xc9;" 
 />
    <glyph glyph-name="Ecircumflex" unicode="&#xca;" 
 />
    <glyph glyph-name="Edieresis" unicode="&#xcb;" 
 />
    <glyph glyph-name="Igrave" unicode="&#xcc;" 
 />
    <glyph glyph-name="Iacute" unicode="&#xcd;" 
 />
    <glyph glyph-name="Icircumflex" unicode="&#xce;" 
 />
    <glyph glyph-name="Idieresis" unicode="&#xcf;" 
 />
    <glyph glyph-name="Eth" unicode="&#xd0;" 
 />
    <glyph glyph-name="Ntilde" unicode="&#xd1;" 
 />
    <glyph glyph-name="Ograve" unicode="&#xd2;" 
 />
    <glyph glyph-name="Oacute" unicode="&#xd3;" 
 />
    <glyph glyph-name="Ocircumflex" unicode="&#xd4;" 
 />
    <glyph glyph-name="Otilde" unicode="&#xd5;" 
 />
    <glyph glyph-name="Odieresis" unicode="&#xd6;" 
 />
    <glyph glyph-name="multiply" unicode="&#xd7;" 
 />
    <glyph glyph-name="Oslash" unicode="&#xd8;" 
 />
    <glyph glyph-name="Ugrave" unicode="&#xd9;" 
 />
    <glyph glyph-name="Uacute" unicode="&#xda;" 
 />
    <glyph glyph-name="Ucircumflex" unicode="&#xdb;" 
 />
    <glyph glyph-name="Udieresis" unicode="&#xdc;" 
 />
    <glyph glyph-name="Yacute" unicode="&#xdd;" 
 />
    <glyph glyph-name="Thorn" unicode="&#xde;" 
 />
    <glyph glyph-name="germandbls" unicode="&#xdf;" 
 />
    <glyph glyph-name="agrave" unicode="&#xe0;" 
 />
    <glyph glyph-name="aacute" unicode="&#xe1;" 
 />
    <glyph glyph-name="acircumflex" unicode="&#xe2;" 
 />
    <glyph glyph-name="atilde" unicode="&#xe3;" 
 />
    <glyph glyph-name="adieresis" unicode="&#xe4;" 
 />
    <glyph glyph-name="aring" unicode="&#xe5;" 
 />
    <glyph glyph-name="ae" unicode="&#xe6;" 
 />
    <glyph glyph-name="ccedilla" unicode="&#xe7;" 
 />
    <glyph glyph-name="egrave" unicode="&#xe8;" 
 />
    <glyph glyph-name="eacute" unicode="&#xe9;" 
 />
    <glyph glyph-name="ecircumflex" unicode="&#xea;" 
 />
    <glyph glyph-name="edieresis" unicode="&#xeb;" 
 />
    <glyph glyph-name="igrave" unicode="&#xec;" 
 />
    <glyph glyph-name="iacute" unicode="&#xed;" 
 />
    <glyph glyph-name="icircumflex" unicode="&#xee;" 
 />
    <glyph glyph-name="idieresis" unicode="&#xef;" 
 />
    <glyph glyph-name="eth" unicode="&#xf0;" 
 />
    <glyph glyph-name="ntilde" unicode="&#xf1;" 
 />
    <glyph glyph-name="ograve" unicode="&#xf2;" 
 />
    <glyph glyph-name="oacute" unicode="&#xf3;" 
 />
    <glyph glyph-name="ocircumflex" unicode="&#xf4;" 
 />
    <glyph glyph-name="otilde" unicode="&#xf5;" 
 />
    <glyph glyph-name="odieresis" unicode="&#xf6;" 
 />
    <glyph glyph-name="divide" unicode="&#xf7;" 
 />
    <glyph glyph-name="oslash" unicode="&#xf8;" 
 />
    <glyph glyph-name="ugrave" unicode="&#xf9;" 
 />
    <glyph glyph-name="uacute" unicode="&#xfa;" 
 />
    <glyph glyph-name="ucircumflex" unicode="&#xfb;" 
 />
    <glyph glyph-name="udieresis" unicode="&#xfc;" 
 />
    <glyph glyph-name="yacute" unicode="&#xfd;" 
 />
    <glyph glyph-name="thorn" unicode="&#xfe;" 
 />
    <glyph glyph-name="ydieresis" unicode="&#xff;" 
 />
    <glyph glyph-name="OE" unicode="&#x152;" 
 />
    <glyph glyph-name="oe" unicode="&#x153;" 
 />
    <glyph glyph-name="Scaron" unicode="&#x160;" 
 />
    <glyph glyph-name="scaron" unicode="&#x161;" 
 />
    <glyph glyph-name="Ydieresis" unicode="&#x178;" 
 />
    <glyph glyph-name="Zcaron" unicode="&#x17d;" 
 />
    <glyph glyph-name="zcaron" unicode="&#x17e;" 
 />
    <glyph glyph-name="florin" unicode="&#x192;" 
 />
    <glyph glyph-name="circumflex" unicode="&#x2c6;" 
 />
    <glyph glyph-name="tilde" unicode="&#x2dc;" 
 />
    <glyph glyph-name="endash" unicode="&#x2013;" 
 />
    <glyph glyph-name="emdash" unicode="&#x2014;" 
 />
    <glyph glyph-name="quoteleft" unicode="&#x2018;" 
 />
    <glyph glyph-name="quoteright" unicode="&#x2019;" 
 />
    <glyph glyph-name="quotesinglbase" unicode="&#x201a;" 
 />
    <glyph glyph-name="quotedblleft" unicode="&#x201c;" 
 />
    <glyph glyph-name="quotedblright" unicode="&#x201d;" 
 />
    <glyph glyph-name="quotedblbase" unicode="&#x201e;" 
 />
    <glyph glyph-name="dagger" unicode="&#x2020;" 
 />
    <glyph glyph-name="daggerdbl" unicode="&#x2021;" 
 />
    <glyph glyph-name="bullet" unicode="&#x2022;" 
 />
    <glyph glyph-name="ellipsis" unicode="&#x2026;" 
 />
    <glyph glyph-name="perthousand" unicode="&#x2030;" 
 />
    <glyph glyph-name="guilsinglleft" unicode="&#x2039;" 
 />
    <glyph glyph-name="guilsinglright" unicode="&#x203a;" 
 />
    <glyph glyph-name="Euro" unicode="&#x20ac;" 
 />
    <glyph glyph-name="trademark" unicode="&#x2122;" 
 />
    <glyph glyph-name="uni2219" unicode="&#x2219;" 
 />
  </font>
</defs>
</svg>
